<?xml version="1.0" encoding="UTF-8" standalone="no"?>
<!DOCTYPE svg PUBLIC "-//W3C//DTD SVG 1.1//EN" "http://www.w3.org/Graphics/SVG/1.1/DTD/svg11.dtd">
<svg width="100%" height="100%" viewBox="0 0 280 44" version="1.1" xmlns="http://www.w3.org/2000/svg" xmlns:xlink="http://www.w3.org/1999/xlink" xml:space="preserve" xmlns:serif="http://www.serif.com/" style="fill-rule:evenodd;clip-rule:evenodd;stroke-linejoin:round;stroke-miterlimit:2;">
    <g transform="matrix(1,0,0,1,-1420.51,-28.3573)">
        <g transform="matrix(0.333333,0,0,1.59154,1351.1,-33.672)">
            <g transform="matrix(0.749867,0,0,0.749867,31.7691,13.8822)">
                <g transform="matrix(1.57804,0,0,0.330504,140.265,-39.4463)">
                    <rect x="190.512" y="262.898" width="22.198" height="63.738" style="fill:rgb(205,0,0);"/>
                </g>
                <g transform="matrix(1.57804,0,0,0.330504,526.29,62.7525)">
                    <path d="M0,-28.908L2.104,-28.908C5.755,-28.908 10.29,-28.655 10.29,-23.67C10.29,-18.51 6.075,-17.833 2.187,-17.833L0,-17.833L0,-28.908ZM-21.388,17.415L0,17.415L0,-1.775L11.342,-1.775C23.739,-1.775 31.514,-9.886 31.514,-22.907C31.514,-38.713 20.984,-46.323 6.725,-46.323L-21.388,-46.323L-21.388,17.415Z" style="fill:rgb(205,0,0);"/>
                </g>
                <g transform="matrix(1.57804,0,0,0.330504,700.972,62.7525)">
                    <path d="M0,-28.908L0,-18.088L1.542,-18.088C5.187,-18.088 8.833,-18.675 8.833,-23.411C8.833,-28.32 5.512,-28.908 1.707,-28.908L0,-28.908ZM-21.71,17.415L-21.71,-46.323L5.105,-46.323C18.879,-46.323 30.547,-40.237 30.547,-24.177C30.547,-14.535 26.98,-10.483 18.718,-7.603L18.718,-7.096C19.854,-6.167 21.229,-5.15 22.444,-3.292L35.732,17.415L10.128,17.415L0.41,-3.042L0,-3.042L0,17.415L-21.71,17.415Z" style="fill:rgb(205,0,0);"/>
                </g>
                <g transform="matrix(0,0.330504,1.57804,0,329.232,43.0121)">
                    <path d="M9.523,-9.515C4.517,-9.515 0.454,-5.257 0.454,0.003C0.454,5.261 4.517,9.523 9.523,9.523C14.526,9.523 18.584,5.261 18.584,0.003C18.584,-5.257 14.526,-9.515 9.523,-9.515" style="fill:rgb(0,119,64);"/>
                </g>
                <g transform="matrix(1.57804,0,0,0.330504,328.855,54.3289)">
                    <path d="M0,-8.528C4.696,-8.666 9.542,-10.279 11.864,-12.898C16.456,-16.569 18.105,-23.907 16.271,-29.495C19.058,-32.572 22.501,-33.988 27.137,-34.073C32.189,-34.172 35.583,-32.709 39.027,-29.184C45.353,-22.717 42.516,-12.374 37.008,-6.605L11.278,18.483C7.888,21.49 4.581,25.378 0.116,25.644C-4.352,25.378 -7.648,21.49 -11.037,18.483L-36.767,-6.605C-42.276,-12.374 -45.113,-22.717 -38.788,-29.184C-35.345,-32.709 -31.945,-34.172 -26.897,-34.073C-22.262,-33.986 -18.822,-32.572 -16.029,-29.495C-17.864,-23.907 -16.214,-16.569 -11.626,-12.898C-9.303,-10.279 -4.702,-8.666 0,-8.528" style="fill:rgb(205,0,0);"/>
                </g>
                <g transform="matrix(1.57804,0,0,0.330504,344.389,69.1774)">
                    <path d="M0,-107.823C0.178,-108.363 49.782,-107.823 49.782,-107.823L49.642,-78.748L45.48,-78.748L45.48,-17.328L49.642,-17.328L49.642,0.54L-0.302,0.54L-0.302,-15.344L31.387,-46.293C36.965,-51.885 41.224,-59.015 39.901,-67.12C39.022,-75.227 32.895,-83.067 23.311,-85.294C15.416,-87.125 8.262,-84.7 3.125,-80.37C1.469,-81.923 -0.148,-83.449 -0.148,-83.449L0,-107.823Z" style="fill:rgb(0,119,64);"/>
                </g>
                <g transform="matrix(1.57804,0,0,0.330504,314.553,61.4053)">
                    <path d="M0,-59.819C0,-59.819 -2.008,-58.407 -3.663,-56.854C-8.801,-61.184 -15.96,-63.64 -23.848,-61.778C-33.425,-59.518 -39.559,-51.712 -40.44,-43.604C-41.763,-35.5 -37.502,-28.37 -31.922,-22.777L-0.24,8.172L-0.24,24.056L-50.181,24.056L-50.181,6.188L-46.021,6.188L-46.021,-55.232L-50.181,-55.232L-50.201,-83.875L-0.135,-83.875L0,-59.819Z" style="fill:rgb(0,119,64);"/>
                </g>
                <g transform="matrix(1.57804,0,0,0.330504,585.822,47.4427)">
                    <path d="M0,63.738L41.722,63.738L41.722,46.322L22.358,46.322L22.358,40.07L39.454,40.07L39.454,23.498L22.358,23.498L22.358,17.415L41.074,17.415L41.074,0L0,0L0,63.738Z" style="fill:rgb(205,0,0);"/>
                </g>
                <g transform="matrix(1.57804,0,0,0.330504,963.264,47.535)">
                    <path d="M0,63.737L21.225,63.737L21.225,43.029C21.225,38.801 20.581,34.659 19.851,30.258L20.501,30.258L40.024,63.737L61.256,63.737L61.256,0L40.024,0L40.024,19.104C40.024,24.514 40.997,30.008 41.888,35.336L41.239,35.336L21.308,0L0,0L0,63.737Z" style="fill:rgb(205,0,0);"/>
                </g>
                <g transform="matrix(1.57804,0,0,0.330504,1069.49,61.7569)">
                    <path d="M0,-22.325L12.231,-22.912L12.231,20.706L34.432,20.706L34.432,-22.912L46.664,-22.325L46.664,-43.031L0,-43.031L0,-22.325Z" style="fill:rgb(205,0,0);"/>
                </g>
                <g transform="matrix(1.57804,0,0,0.330504,1187.18,62.8439)">
                    <path d="M0,-28.903L1.704,-28.903C5.509,-28.903 8.833,-28.317 8.833,-23.414C8.833,-18.681 5.183,-18.087 1.54,-18.087L0,-18.087L0,-28.903ZM-21.711,17.417L0,17.417L0,-3.04L0.406,-3.04L10.128,17.417L35.727,17.417L22.443,-3.291C21.226,-5.156 19.848,-6.172 18.715,-7.1L18.715,-7.607C26.979,-10.478 30.543,-14.541 30.543,-24.177C30.543,-40.234 18.88,-46.32 5.104,-46.32L-21.711,-46.32L-21.711,17.417Z" style="fill:rgb(205,0,0);"/>
                </g>
                <g transform="matrix(1.57804,0,0,0.330504,1300.32,62.0081)">
                    <path d="M0,-23.847C7.046,-23.847 11.421,-18.179 11.421,-11.415C11.421,-4.147 6.723,0.844 0,0.844C-6.728,0.844 -11.429,-4.147 -11.429,-11.415C-11.429,-18.179 -7.051,-23.847 0,-23.847M0,-44.809C-18.555,-44.809 -33.784,-31.791 -33.784,-11.758C-33.784,8.706 -18.638,20.962 0,20.962C18.632,20.962 33.781,8.706 33.781,-11.758C33.781,-31.791 18.552,-44.809 0,-44.809" style="fill:rgb(205,0,0);"/>
                </g>
                <g transform="matrix(1.57804,0,0,0.330504,867.473,68.5981)">
                    <path d="M0,-79.13C-6.144,-81.343 -12.922,-82.559 -19.492,-82.559C-42.896,-82.559 -61.22,-61.989 -61.22,-37.675C-61.22,-13.914 -43.426,3.429 -20.654,3.429C-15.465,3.429 -4.66,2.431 0,0.109L0.85,-31.051C-3.813,-26.303 -9.108,-23.319 -15.784,-23.319C-24.469,-23.319 -31.988,-30.39 -31.988,-39.564C-31.988,-48.624 -24.893,-55.812 -16.205,-55.812C-9.637,-55.812 -3.813,-51.943 0.85,-47.413L0,-79.13Z" style="fill:rgb(205,0,0);"/>
                </g>
                <g transform="matrix(1.57804,0,0,0.330504,882.355,47.5211)">
                    <path d="M0,63.746L41.727,63.746L41.727,46.332L22.359,46.332L22.359,40.074L39.459,40.074L39.459,23.506L22.359,23.506L22.359,17.422L41.076,17.422L41.076,0L0,0L0,63.746Z" style="fill:rgb(205,0,0);"/>
                </g>
            </g>
        </g>
    </g>
</svg>
